<svg width="24" height="24" viewBox="0 0 24 24" fill="none" xmlns="http://www.w3.org/2000/svg">
<path fill-rule="evenodd" clip-rule="evenodd" d="M2.04163 12C2.04164 13.8333 3.52781 15.3195 5.36109 15.3195L18.6389 15.3195C20.4722 15.3195 21.9584 13.8333 21.9584 12C21.9584 10.1667 20.4722 8.68052 18.6389 8.68052L5.36109 8.68054C3.52781 8.68054 2.04164 10.1667 2.04163 12ZM8.35941 11.3689C8.01086 11.3689 7.72829 11.6514 7.72829 12C7.72829 12.3486 8.01086 12.6311 8.35941 12.6311C8.70797 12.6311 8.99053 12.3486 8.99053 12C8.99053 11.6514 8.70797 11.3689 8.35941 11.3689ZM10.4631 10.317C10.1146 10.317 9.832 10.5996 9.83203 10.9481C9.832 11.2967 10.1146 11.5793 10.4632 11.5793C10.8117 11.5793 11.0943 11.2967 11.0943 10.9482C11.0943 10.5996 10.8117 10.317 10.4631 10.317ZM14.6706 10.317C15.0192 10.3171 15.3017 10.5996 15.3018 10.9482C15.3017 11.2967 15.0192 11.5792 14.6707 11.5792C14.322 11.5792 14.0395 11.2967 14.0395 10.9481C14.0395 10.5996 14.322 10.3171 14.6706 10.317ZM17.4054 12C17.4055 11.6514 17.1229 11.3688 16.7743 11.3689C16.4258 11.3688 16.1432 11.6514 16.1433 12C16.1432 12.3486 16.4258 12.6312 16.7743 12.6311C17.1229 12.6312 17.4055 12.3486 17.4054 12ZM13.1979 12C13.198 11.6514 12.9155 11.3689 12.5668 11.3689C12.2183 11.3689 11.9358 11.6514 11.9358 12C11.9358 12.3486 12.2183 12.6311 12.5668 12.6311C12.9155 12.6311 13.198 12.3486 13.1979 12ZM14.6707 12.4208C15.0192 12.4208 15.3017 12.7033 15.3018 13.0518C15.3017 13.4004 15.0192 13.6829 14.6706 13.683C14.322 13.6829 14.0395 13.4004 14.0395 13.0519C14.0395 12.7033 14.322 12.4208 14.6707 12.4208ZM9.83203 13.0519C9.832 12.7033 10.1146 12.4207 10.4632 12.4207C10.8117 12.4207 11.0943 12.7033 11.0943 13.0518C11.0943 13.4004 10.8117 13.683 10.4631 13.683C10.1146 13.683 9.832 13.4004 9.83203 13.0519Z" fill="#FF4E92"/>
<path d="M8.68059 16.5216L8.68054 18.639C8.68054 20.4723 10.1667 21.9585 12 21.9585C13.8333 21.9585 15.3195 20.4723 15.3195 18.639L15.3194 16.5216L8.68059 16.5216Z" fill="#FF4E92"/>
<path d="M15.3194 7.47836L15.3195 5.36099C15.3195 3.52771 13.8333 2.04154 12 2.04153C10.1667 2.04153 8.68054 3.52773 8.68054 5.36101L8.68059 7.47835L15.3194 7.47836Z" fill="#FF4E92"/>
</svg>
