<svg width="72" height="72" viewBox="0 0 72 72" fill="none" xmlns="http://www.w3.org/2000/svg">
<g clip-path="url(#clip0_439_1835)">
<path d="M12.3028 24.7927C12.0069 8.87736 25.0825 -0.891094 40.6103 0.0644504C58.9547 1.19479 67.8917 15.8108 66.6368 30.7857C65.3828 45.7583 57.9497 49.6429 53.3829 56.9441C52.1267 58.9546 51.4627 63.3452 51.4627 65.2666V72.0001H23.2951V62.0734C23.2951 61.4198 23.0164 60.7962 22.5294 60.3613C22.0426 59.924 21.3923 59.7169 20.7424 59.7886L17.4135 59.5239C16.2036 59.6593 14.991 59.2808 14.0726 58.4804C13.1542 57.6811 12.6129 56.5336 12.5781 55.3157L11.2689 42.684L7.0997 41.5344C6.37565 41.391 5.76489 40.9084 5.4572 40.2375C5.14946 39.5667 5.18195 38.7883 5.54509 38.1464L12.2912 26.233L12.3028 24.7927ZM36.3799 11.1601C36.0917 11.1601 35.8102 11.2482 35.5741 11.4125C35.338 11.577 35.1585 11.8098 35.0602 12.0791L31.8166 20.9241H27.324C26.9517 20.9241 26.5945 21.071 26.3312 21.3326C26.068 21.5942 25.9199 21.9491 25.9199 22.3191C25.9199 22.689 26.068 23.0439 26.3312 23.3055C26.5945 23.5672 26.9517 23.7144 27.324 23.7144H33.3611C33.4408 23.6763 33.5162 23.6294 33.5857 23.5748C33.6638 23.5236 33.7389 23.4677 33.8104 23.4075L33.9369 23.2261C34.0038 23.1399 34.0603 23.0462 34.1053 22.947L36.3799 16.6273L42.2204 32.5594C42.3185 32.829 42.4979 33.0619 42.7341 33.2266C42.9702 33.3914 43.2517 33.48 43.5402 33.4801C43.8287 33.48 44.1102 33.3914 44.3463 33.2266C44.5824 33.0619 44.7618 32.829 44.86 32.5594L48.0891 23.7144H52.5961C52.9684 23.7144 53.3256 23.5672 53.5889 23.3055C53.8521 23.0439 53.9999 22.689 53.9999 22.3191C53.9998 21.9491 53.8522 21.5942 53.5889 21.3326C53.3256 21.071 52.9684 20.9241 52.5961 20.9241H47.0643C46.9664 20.9109 46.8671 20.9109 46.7693 20.9241H46.5306C46.4572 20.9657 46.3868 21.0124 46.32 21.0636C46.2418 21.1149 46.1668 21.1708 46.0953 21.231C46.0485 21.288 46.0064 21.3487 45.9691 21.4124C45.9048 21.5003 45.8485 21.5938 45.8007 21.6915L43.5543 27.8439L37.6997 12.0791C37.6013 11.8098 37.4218 11.577 37.1857 11.4125C36.9496 11.2481 36.6682 11.1601 36.3799 11.1601Z" fill="url(#paint0_linear_439_1835)"/>
</g>
<defs>
<linearGradient id="paint0_linear_439_1835" x1="5.24754" y1="5.24749" x2="66.7528" y2="66.7528" gradientUnits="userSpaceOnUse">
<stop stop-color="#1E90FF"/>
<stop offset="1" stop-color="#CC02FF"/>
</linearGradient>
<clipPath id="clip0_439_1835">
<rect width="72" height="72" fill="white"/>
</clipPath>
</defs>
</svg>
