<svg width="153" height="136" viewBox="0 0 153 136" fill="none" xmlns="http://www.w3.org/2000/svg">
<g clip-path="url(#clip0_439_2931)">
<path d="M52.8028 24.7927C52.5069 8.87736 65.5825 -0.891094 81.1103 0.0644504C99.4547 1.19479 108.392 15.8108 107.137 30.7857C105.883 45.7583 98.4497 49.6429 93.8829 56.9441C92.6267 58.9546 91.9627 63.3452 91.9627 65.2666V72.0001H63.7951V62.0734C63.7951 61.4198 63.5164 60.7962 63.0294 60.3613C62.5426 59.924 61.8923 59.7169 61.2424 59.7886L57.9135 59.5239C56.7036 59.6593 55.491 59.2808 54.5726 58.4804C53.6542 57.6811 53.1129 56.5336 53.0781 55.3157L51.7689 42.684L47.5997 41.5344C46.8757 41.391 46.2649 40.9084 45.9572 40.2375C45.6495 39.5667 45.6819 38.7883 46.0451 38.1464L52.7912 26.233L52.8028 24.7927ZM76.8799 11.1601C76.5917 11.1601 76.3102 11.2482 76.0741 11.4125C75.838 11.577 75.6585 11.8098 75.5602 12.0791L72.3166 20.9241H67.824C67.4517 20.9241 67.0945 21.071 66.8312 21.3326C66.568 21.5942 66.4199 21.9491 66.4199 22.3191C66.4199 22.689 66.568 23.0439 66.8312 23.3055C67.0945 23.5672 67.4517 23.7144 67.824 23.7144H73.8611C73.9408 23.6763 74.0162 23.6294 74.0857 23.5748C74.1638 23.5236 74.2389 23.4677 74.3104 23.4075L74.4369 23.2261C74.5038 23.1399 74.5603 23.0462 74.6053 22.947L76.8799 16.6273L82.7204 32.5594C82.8185 32.829 82.9979 33.0619 83.2341 33.2266C83.4702 33.3914 83.7517 33.48 84.0402 33.4801C84.3287 33.48 84.6102 33.3914 84.8463 33.2266C85.0824 33.0619 85.2618 32.829 85.36 32.5594L88.5891 23.7144H93.0961C93.4684 23.7144 93.8256 23.5672 94.0889 23.3055C94.3521 23.0439 94.4999 22.689 94.4999 22.3191C94.4998 21.9491 94.3522 21.5942 94.0889 21.3326C93.8256 21.071 93.4684 20.9241 93.0961 20.9241H87.5643C87.4664 20.9109 87.3671 20.9109 87.2693 20.9241H87.0306C86.9572 20.9657 86.8868 21.0124 86.82 21.0636C86.7418 21.1149 86.6668 21.1708 86.5953 21.231C86.5485 21.288 86.5064 21.3487 86.4691 21.4124C86.4048 21.5003 86.3485 21.5938 86.3007 21.6915L84.0543 27.8439L78.1997 12.0791C78.1013 11.8098 77.9218 11.577 77.6857 11.4125C77.4496 11.2481 77.1682 11.1601 76.8799 11.1601Z" fill="url(#paint0_linear_439_2931)"/>
</g>
<path d="M3.80023 100.08C3.80023 103 10.6602 100.56 10.6602 105.88C10.6602 108.74 8.38023 110.24 5.70023 110.24C3.02023 110.24 0.860234 108.84 0.740234 105.88H3.46023C3.54023 107.08 4.66023 107.72 5.76023 107.72C6.82023 107.72 7.82023 107.14 7.82023 105.88C7.82023 103 0.940234 105.36 0.940234 100.08C0.940234 97.32 3.26023 95.84 5.70023 95.84C8.02023 95.84 10.3202 97.22 10.4402 100.08H7.70023C7.64023 99.02 6.86023 98.48 5.76023 98.48C4.64023 98.48 3.80023 99 3.80023 100.08ZM11.2173 96.08H21.4373V98.64H17.6973V110H14.9373V98.64H11.2173V96.08ZM29.8912 104.08L34.1912 110H30.8312L26.2112 103.76V103.46L28.3112 102.4C29.2112 101.96 29.5512 101.32 29.5512 100.5C29.5512 99.5 28.9312 98.64 27.6512 98.64H25.2112V110H22.4512V96.08H28.0712C30.9312 96.08 32.3512 98.08 32.3512 100.38C32.3512 102.02 31.4112 103.36 29.8912 104.08ZM40.9066 95.84C44.9066 95.84 48.1066 99.06 48.1066 103.04C48.1066 107.02 44.9066 110.24 40.9066 110.24C36.9066 110.24 33.7066 107.02 33.7066 103.04C33.7066 99.06 36.9066 95.84 40.9066 95.84ZM40.9066 107.52C43.3666 107.52 45.2866 105.5 45.2866 103.04C45.2866 100.56 43.3666 98.56 40.9066 98.56C38.4466 98.56 36.5266 100.56 36.5266 103.04C36.5266 105.5 38.4466 107.52 40.9066 107.52ZM55.8415 102.1L61.1215 110H57.8015L54.1415 104.4L49.8415 110.2H49.5215V96.08H52.2815V102.52L57.0615 96.08H60.3215L55.8415 102.1ZM71.161 96.08V98.64H64.801V107.44H71.161V110H62.041V96.08H71.161ZM70.141 104.08H65.321V103.8L70.141 101.48V104.08ZM80.2651 100.08C80.2651 103 87.1251 100.56 87.1251 105.88C87.1251 108.74 84.8451 110.24 82.1651 110.24C79.4851 110.24 77.3251 108.84 77.2051 105.88H79.9251C80.0051 107.08 81.1251 107.72 82.2251 107.72C83.2851 107.72 84.2851 107.14 84.2851 105.88C84.2851 103 77.4051 105.36 77.4051 100.08C77.4051 97.32 79.7251 95.84 82.1651 95.84C84.4851 95.84 86.7851 97.22 86.9051 100.08H84.1651C84.1051 99.02 83.3251 98.48 82.2251 98.48C81.1051 98.48 80.2651 99 80.2651 100.08ZM94.9221 96.08C100.842 96.08 100.842 104.94 94.9221 104.94H91.4221V110H88.6621V96.08H94.9221ZM94.6021 102.38C97.1421 102.38 97.1421 98.64 94.6021 98.64H91.4221V102.38H94.6021ZM107.215 95.84C111.215 95.84 114.415 99.06 114.415 103.04C114.415 107.02 111.215 110.24 107.215 110.24C103.215 110.24 100.015 107.02 100.015 103.04C100.015 99.06 103.215 95.84 107.215 95.84ZM107.215 107.52C109.675 107.52 111.595 105.5 111.595 103.04C111.595 100.56 109.675 98.56 107.215 98.56C104.755 98.56 102.835 100.56 102.835 103.04C102.835 105.5 104.755 107.52 107.215 107.52ZM118.59 110H115.83V96.08H118.59V110ZM123.356 107.44H129.396V110H120.596V96.08H123.356V107.44ZM139.559 96.08V98.64H133.199V107.44H139.559V110H130.439V96.08H139.559ZM138.539 104.08H133.719V103.8L138.539 101.48V104.08ZM148.544 104.08L152.844 110H149.484L144.864 103.76V103.46L146.964 102.4C147.864 101.96 148.204 101.32 148.204 100.5C148.204 99.5 147.584 98.64 146.304 98.64H143.864V110H141.104V96.08H146.724C149.584 96.08 151.004 98.08 151.004 100.38C151.004 102.02 150.064 103.36 148.544 104.08Z" fill="black"/>
<path d="M27.8816 121.312C27.8816 122.292 27.6185 123.211 27.0925 124.07C26.5717 124.924 25.8764 125.648 25.0066 126.242C24.1368 126.836 23.1862 127.247 22.155 127.477L21.4909 126.234C22.3816 126.057 23.2175 125.724 23.9987 125.234C24.78 124.745 25.405 124.154 25.8737 123.461C26.3425 122.768 26.5769 122.052 26.5769 121.312V120.266H27.8816V121.312ZM28.1394 121.312C28.1394 122.047 28.3764 122.763 28.8503 123.461C29.3243 124.159 29.9545 124.755 30.7409 125.25C31.5274 125.74 32.3633 126.068 33.2487 126.234L32.5847 127.477C31.5639 127.247 30.6185 126.839 29.7487 126.25C28.879 125.661 28.181 124.938 27.655 124.078C27.129 123.219 26.8659 122.297 26.8659 121.312V120.266H28.1394V121.312ZM33.8425 131.484H21.03V130.258H33.8425V131.484ZM45.9053 127.977H36.1397V126.781H45.9053V127.977ZM47.3506 131.562H34.5381V130.344H47.3506V131.562ZM45.7647 121.703H37.6553V127.125H36.1397V120.469H45.7647V121.703ZM45.4522 124.75H37.1944V123.578H45.4522V124.75ZM60.8587 131.648H48.0462V130.422H60.8587V131.648ZM55.1478 130.945H53.6947V127.531H55.1478V130.945ZM59.2884 124.688H51.0853V127.375H49.6087V123.5H57.8275V121.531H49.5853V120.32H59.2884V124.688ZM59.6166 127.953H49.6087V126.734H59.6166V127.953ZM71.9919 121.906H63.07V120.688H71.9919V121.906ZM74.32 131.453H61.5544V130.219H74.32V131.453ZM72.82 122.383C72.82 123.284 72.8096 124.044 72.7887 124.664C72.7731 125.279 72.721 125.971 72.6325 126.742C72.5492 127.508 72.4111 128.346 72.2184 129.258L70.7341 129.125C70.9268 128.281 71.0674 127.482 71.1559 126.727C71.2497 125.966 71.3096 125.284 71.3356 124.68C71.3617 124.076 71.3747 123.31 71.3747 122.383V120.688H72.82V122.383ZM62.8747 126.125L62.6794 124.914L71.7184 124.562V125.656L62.8747 126.125ZM85.5003 121.312C85.5003 122.292 85.2373 123.211 84.7113 124.07C84.1904 124.924 83.4951 125.648 82.6253 126.242C81.7555 126.836 80.805 127.247 79.7738 127.477L79.1097 126.234C80.0003 126.057 80.8363 125.724 81.6175 125.234C82.3988 124.745 83.0238 124.154 83.4925 123.461C83.9613 122.768 84.1956 122.052 84.1956 121.312V120.266H85.5003V121.312ZM85.7581 121.312C85.7581 122.047 85.9951 122.763 86.4691 123.461C86.943 124.159 87.5732 124.755 88.3597 125.25C89.1461 125.74 89.9821 126.068 90.8675 126.234L90.2034 127.477C89.1826 127.247 88.2373 126.839 87.3675 126.25C86.4977 125.661 85.7998 124.938 85.2738 124.078C84.7477 123.219 84.4847 122.297 84.4847 121.312V120.266H85.7581V121.312ZM91.4613 131.484H78.6488V130.258H91.4613V131.484ZM104.969 131.648H92.1569V130.398H104.969V131.648ZM99.2428 130.961H97.7819V126.883H99.2428V130.961ZM103.798 121.836H93.2428V120.625H103.798V121.836ZM103.758 127.406H93.2897V126.227H103.758V127.406ZM96.8444 126.422H95.3678V121.578H96.8444V126.422ZM101.665 126.422H100.204V121.578H101.665V126.422ZM109.634 119.805C110.332 119.805 110.959 119.938 111.517 120.203C112.079 120.469 112.517 120.841 112.829 121.32C113.142 121.794 113.298 122.333 113.298 122.938C113.298 123.542 113.142 124.081 112.829 124.555C112.517 125.029 112.079 125.398 111.517 125.664C110.959 125.93 110.332 126.062 109.634 126.062C108.931 126.062 108.298 125.93 107.735 125.664C107.178 125.398 106.741 125.029 106.423 124.555C106.11 124.081 105.954 123.542 105.954 122.938C105.954 122.333 106.11 121.794 106.423 121.32C106.741 120.841 107.178 120.469 107.735 120.203C108.298 119.938 108.931 119.805 109.634 119.805ZM109.634 121.039C109.212 121.039 108.832 121.117 108.493 121.273C108.155 121.43 107.889 121.654 107.696 121.945C107.504 122.232 107.407 122.562 107.407 122.938C107.407 123.312 107.504 123.646 107.696 123.938C107.889 124.229 108.155 124.456 108.493 124.617C108.832 124.779 109.212 124.859 109.634 124.859C110.061 124.859 110.444 124.779 110.782 124.617C111.121 124.456 111.386 124.229 111.579 123.938C111.772 123.646 111.868 123.312 111.868 122.938C111.868 122.562 111.772 122.232 111.579 121.945C111.386 121.654 111.121 121.43 110.782 121.273C110.444 121.117 110.061 121.039 109.634 121.039ZM117.274 126.461H115.798V119.32H117.274V126.461ZM117.274 130.617H109.563V132.602H108.11V129.523H115.806V128.273H108.079V127.102H117.274V130.617ZM117.743 133.148H108.11V131.969H117.743V133.148ZM130.829 133.359H129.361V119.32H130.829V133.359ZM129.704 125.82H126.798V124.594H129.704V125.82ZM120.79 128.773C122.16 128.773 123.311 128.745 124.243 128.688C125.181 128.63 126.129 128.513 127.087 128.336L127.204 129.57C126.225 129.742 125.251 129.859 124.283 129.922C123.314 129.979 122.15 130.013 120.79 130.023H119.697V128.773H120.79ZM125.97 125.602H121.173V129.164H119.697V124.398H124.525V121.797H119.65V120.586H125.97V125.602Z" fill="#4D4D4D"/>
<defs>
<linearGradient id="paint0_linear_439_2931" x1="45.7475" y1="5.24749" x2="107.253" y2="66.7528" gradientUnits="userSpaceOnUse">
<stop stop-color="#1E90FF"/>
<stop offset="1" stop-color="#CC02FF"/>
</linearGradient>
<clipPath id="clip0_439_2931">
<rect width="72" height="72" fill="white" transform="translate(40.5)"/>
</clipPath>
</defs>
</svg>
