<svg width="24" height="24" viewBox="0 0 24 24" fill="none" xmlns="http://www.w3.org/2000/svg">
<path d="M12.0002 1.25C12.9476 1.25005 13.8512 1.4323 14.6829 1.76172C14.4042 2.17385 14.2016 2.64147 14.092 3.14355C13.4391 2.88985 12.7343 2.75005 12.0002 2.75C8.7131 2.75 6.00127 5.52385 6.00122 9.00488V9.70996C6.00115 10.6973 5.719 11.6645 5.18872 12.4902V12.4912L4.0813 14.2148C3.32766 15.3884 3.92563 16.9471 5.17505 17.3008C9.64374 18.5657 14.3568 18.5657 18.8254 17.3008C20.0356 16.958 20.6343 15.4847 19.9856 14.3262L19.9192 14.2148L18.8118 12.4902C18.2815 11.6645 17.9993 10.6974 17.9993 9.70996V9.00488C17.9993 8.66164 17.9709 8.32555 17.9202 7.99805C17.9468 7.99857 17.9735 8 18.0002 8C18.4924 7.99998 18.9632 7.90967 19.3987 7.74707C19.4635 8.15692 19.4993 8.57693 19.4993 9.00488V9.70996C19.4993 10.4133 19.7003 11.0986 20.0735 11.6797L21.1809 13.4043C22.4499 15.3802 21.5025 18.1017 19.2336 18.7441C18.5648 18.9335 17.89 19.0946 17.2122 19.2305C17.2086 19.2414 17.2064 19.2528 17.2024 19.2637C16.4333 21.3152 14.3778 22.7498 12.0002 22.75C9.62249 22.75 7.56727 21.3153 6.7981 19.2637C6.79401 19.2528 6.7909 19.2414 6.78735 19.2305C6.1095 19.0946 5.4348 18.9335 4.76587 18.7441C2.49714 18.1016 1.55048 15.3802 2.81958 13.4043L3.927 11.6797L4.05884 11.457C4.34716 10.927 4.50116 10.3253 4.50122 9.70996V9.00488C4.50127 4.74851 7.83256 1.25 12.0002 1.25ZM15.3782 19.5312C13.1345 19.8196 10.865 19.8195 8.62134 19.5312C9.33184 20.5553 10.5692 21.25 12.0002 21.25C13.431 21.2499 14.6677 20.5551 15.3782 19.5312Z" fill="black"/>
<circle cx="18" cy="4" r="3" fill="#1E90FF"/>
</svg>
