<svg width="24" height="24" viewBox="0 0 24 24" fill="none" xmlns="http://www.w3.org/2000/svg">
<path d="M12.0002 1.25C12.5853 1.25002 13.1533 1.32086 13.6985 1.45117C13.4416 1.88381 13.2484 2.35834 13.1311 2.8623C12.7643 2.7891 12.3863 2.75002 12.0002 2.75C8.7131 2.75 6.00127 5.52385 6.00122 9.00488V9.70996C6.00115 10.6973 5.71902 11.6645 5.18872 12.4902V12.4912L4.0813 14.2148C3.32766 15.3884 3.92563 16.9471 5.17505 17.3008C9.64378 18.5657 14.3568 18.5657 18.8254 17.3008C20.0357 16.958 20.6344 15.4847 19.9856 14.3262L19.9192 14.2148L18.8118 12.4902C18.2815 11.6645 17.9993 10.6974 17.9993 9.70996V9.00488C17.9993 9.00293 17.9983 9.00098 17.9983 8.99902L18.0002 9C18.5204 8.99998 19.0218 8.91988 19.4934 8.77246C19.4956 8.84969 19.4993 8.92713 19.4993 9.00488V9.70996C19.4993 10.4133 19.7003 11.0986 20.0735 11.6797L21.1809 13.4043C22.45 15.3803 21.5026 18.1017 19.2336 18.7441C18.5647 18.9335 17.89 19.0946 17.2122 19.2305C17.2086 19.2414 17.2064 19.2528 17.2024 19.2637C16.4333 21.3153 14.3779 22.7499 12.0002 22.75C9.62247 22.75 7.56726 21.3153 6.7981 19.2637C6.794 19.2527 6.79091 19.2415 6.78735 19.2305C6.10945 19.0946 5.43485 18.9335 4.76587 18.7441C2.49714 18.1016 1.55048 15.3802 2.81958 13.4043L3.927 11.6797L4.05884 11.457C4.34718 10.927 4.50116 10.3253 4.50122 9.70996V9.00488C4.50127 4.74851 7.83256 1.25 12.0002 1.25ZM15.3782 19.5312C13.1344 19.8196 10.8651 19.8196 8.62134 19.5312C9.33183 20.5554 10.5692 21.25 12.0002 21.25C13.431 21.2499 14.6677 20.5551 15.3782 19.5312Z" fill="black"/>
<circle cx="18" cy="4" r="4" fill="#1E90FF"/>
</svg>
