<svg width="24" height="22" viewBox="0 0 24 22" fill="none" xmlns="http://www.w3.org/2000/svg">
<path d="M0 2.4C0 1.26863 7.15256e-08 0.702948 0.351468 0.351468C0.702948 7.15256e-08 1.26863 0 2.4 0H21.6C22.7314 0 23.297 7.15256e-08 23.6485 0.351468C24 0.702948 24 1.26863 24 2.4C24 3.53137 24 4.09705 23.6485 4.44853C23.297 4.8 22.7314 4.8 21.6 4.8H2.4C1.26863 4.8 0.702948 4.8 0.351468 4.44853C7.15256e-08 4.09705 0 3.53137 0 2.4Z" fill="black"/>
<path fill-rule="evenodd" clip-rule="evenodd" d="M21.6827 6.59991C21.8522 6.59999 22.0262 6.60006 22.2 6.59766V11.9999C22.2 16.5253 22.2 18.7882 20.7941 20.194C19.3883 21.5999 17.1255 21.5999 12.6 21.5999H11.4C6.87456 21.5999 4.61183 21.5999 3.20593 20.194C1.80005 18.7882 1.80005 16.5253 1.80005 11.9999V6.59766C1.9739 6.60006 2.14804 6.59999 2.31742 6.59991H21.6827ZM15.5994 11.0287C15.9702 11.3597 16.0024 11.9286 15.6714 12.2994L11.3856 17.0994C11.2149 17.2907 10.9707 17.4 10.7144 17.4C10.4579 17.4 10.2137 17.2907 10.043 17.0994L8.32871 15.1794C7.99766 14.8086 8.02987 14.2397 8.40065 13.9087C8.77141 13.5776 9.34036 13.6098 9.67145 13.9806L10.7144 15.1487L14.3288 11.1006C14.6597 10.7298 15.2286 10.6976 15.5994 11.0287Z" fill="black"/>
</svg>
