<svg width="24" height="24" viewBox="0 0 24 24" fill="none" xmlns="http://www.w3.org/2000/svg">
<path d="M0 3.6C0 2.46862 7.15256e-08 1.90295 0.351468 1.55147C0.702948 1.2 1.26863 1.2 2.4 1.2H21.6C22.7314 1.2 23.297 1.2 23.6485 1.55147C24 1.90295 24 2.46862 24 3.6C24 4.73137 24 5.29705 23.6485 5.64853C23.297 6 22.7314 6 21.6 6H2.4C1.26863 6 0.702948 6 0.351468 5.64853C7.15256e-08 5.29705 0 4.73137 0 3.6Z" fill="black"/>
<path fill-rule="evenodd" clip-rule="evenodd" d="M21.6827 7.79991C21.8522 7.79998 22.0262 7.80005 22.2 7.79765V13.1999C22.2 17.7253 22.2 19.9882 20.7941 21.394C19.3883 22.7999 17.1255 22.7999 12.6 22.7999H11.4C6.87456 22.7999 4.61183 22.7999 3.20593 21.394C1.80005 19.9882 1.80005 17.7253 1.80005 13.1999V7.79765C1.9739 7.80005 2.14804 7.79998 2.31742 7.79991H21.6827ZM15.5994 12.2287C15.9702 12.5597 16.0024 13.1286 15.6714 13.4994L11.3856 18.2994C11.2149 18.4907 10.9707 18.6 10.7144 18.6C10.4579 18.6 10.2137 18.4907 10.043 18.2994L8.32871 16.3794C7.99766 16.0086 8.02987 15.4397 8.40065 15.1087C8.77141 14.7776 9.34036 14.8098 9.67145 15.1806L10.7144 16.3487L14.3288 12.3006C14.6597 11.9298 15.2286 11.8976 15.5994 12.2287Z" fill="black"/>
</svg>
