<svg width="24" height="24" viewBox="0 0 24 24" fill="none" xmlns="http://www.w3.org/2000/svg">
<path fill-rule="evenodd" clip-rule="evenodd" d="M20.7214 2.2177C21.0143 1.92513 21.4892 1.92492 21.7819 2.2177C22.0746 2.5105 22.0745 2.98538 21.7819 3.27825L13.0603 11.9999L21.781 20.7206C22.0738 21.0135 22.0739 21.4883 21.781 21.7812C21.4881 22.0739 21.0133 22.074 20.7204 21.7812L11.9997 13.0605L3.27902 21.7812C2.98618 22.074 2.51137 22.0739 2.21847 21.7812C1.92558 21.4883 1.9256 21.0135 2.21847 20.7206L10.9392 11.9999L2.21749 3.27825C1.92495 2.98538 1.92484 2.51051 2.21749 2.2177C2.51029 1.92491 2.98512 1.92511 3.27804 2.2177L11.9997 10.9394L20.7214 2.2177Z" fill="black"/>
</svg>
