<svg width="32" height="32" viewBox="0 0 32 32" fill="none" xmlns="http://www.w3.org/2000/svg">
<path d="M24.7214 6.2177C25.0144 5.92512 25.4892 5.92491 25.782 6.2177C26.0746 6.5105 26.0745 6.98538 25.782 7.27824L17.0603 15.9999L25.781 24.7206C26.0739 25.0135 26.0739 25.4883 25.781 25.7812C25.4881 26.0739 25.0133 26.074 24.7205 25.7812L15.9998 17.0605L7.27905 25.7812C6.98621 26.074 6.51141 26.0739 6.21851 25.7812C5.92562 25.4883 5.92563 25.0135 6.21851 24.7206L14.9392 15.9999L6.21753 7.27824C5.92499 6.98537 5.92488 6.5105 6.21753 6.2177C6.51032 5.92491 6.98516 5.92511 7.27808 6.2177L15.9998 14.9394L24.7214 6.2177Z" fill="black"/>
</svg>
