<svg width="24" height="24" viewBox="0 0 24 24" fill="none" xmlns="http://www.w3.org/2000/svg">
<path d="M12 2C16.714 2 19.0707 2.00038 20.5352 3.46484C21.9996 4.92931 22 7.28595 22 12C22 16.714 21.9996 19.0707 20.5352 20.5352C19.0707 21.9996 16.714 22 12 22C7.28595 22 4.92931 21.9996 3.46484 20.5352C2.00038 19.0707 2 16.714 2 12C2 7.28595 2.00038 4.92931 3.46484 3.46484C4.92931 2.00038 7.28595 2 12 2ZM7.53027 9.46973C7.23739 9.17685 6.76262 9.17687 6.46973 9.46973C6.17684 9.76262 6.17684 10.2374 6.46973 10.5303L8.7627 12.8232C9.44611 13.5064 10.554 13.5065 11.2373 12.8232L12.8232 11.2373C12.9209 11.1398 13.0791 11.1397 13.1768 11.2373L15.1895 13.25H14.5C14.0858 13.25 13.75 13.5858 13.75 14C13.75 14.4142 14.0858 14.75 14.5 14.75H17C17.4141 14.7499 17.75 14.4141 17.75 14V11.5C17.75 11.0858 17.4141 10.7501 17 10.75C16.5858 10.75 16.25 11.0858 16.25 11.5V12.1895L14.2373 10.1768C13.5539 9.49336 12.4461 9.49342 11.7627 10.1768L10.1768 11.7627C10.0791 11.8602 9.92086 11.8601 9.82324 11.7627L7.53027 9.46973Z" fill="black"/>
</svg>
