<svg width="24" height="24" viewBox="0 0 24 24" fill="none" xmlns="http://www.w3.org/2000/svg">
  <path d="M19 8C19 8.55 18.55 9 18 9C17.45 9 17 8.55 17 8C17 7.45 17.45 7 18 7C18.55 7 19 7.45 19 8Z" fill="currentColor"/>
  <path d="M20.79 4.79C20.62 4.62 20.38 4.54 20.14 4.58L15.09 5.46C14.7 5.53 14.41 5.84 14.37 6.23L14.12 8.63L12.71 7.22C12.32 6.83 11.69 6.83 11.3 7.22L8.1 10.42C7.71 10.81 7.71 11.44 8.1 11.83L9.51 13.24L7.11 13.49C6.72 13.53 6.41 13.82 6.34 14.21L5.46 19.26C5.42 19.5 5.5 19.74 5.67 19.91C5.84 20.08 6.08 20.16 6.32 20.12L11.37 19.24C11.76 19.17 12.05 18.88 12.09 18.49L12.34 16.09L13.75 17.5C14.14 17.89 14.77 17.89 15.16 17.5L18.36 14.3C18.75 13.91 18.75 13.28 18.36 12.89L16.95 11.48L19.35 11.23C19.74 11.19 20.03 10.9 20.1 10.51L20.98 5.46C21.02 5.22 20.94 4.98 20.79 4.79ZM10.42 17.17L8.59 17.49L8.91 15.66L10.29 15.51L10.57 15.79L10.42 17.17ZM16.95 13.59L14.46 16.08L11.97 13.59L14.46 11.1L16.95 13.59ZM17.07 9.48L15.69 9.63L15.41 9.35L15.56 7.97L17.39 7.65L17.07 9.48Z" fill="currentColor"/>
</svg>
