<svg width="32" height="32" viewBox="0 0 32 32" fill="none" xmlns="http://www.w3.org/2000/svg">
<path d="M25.8994 14.4625L25.7846 14.025H16.2956V17.9749H21.9712C21.6545 19.1802 20.9345 20.2465 19.9263 21.0034C18.9182 21.7602 17.6802 22.1638 16.4104 22.1497C14.7534 22.1363 13.1614 21.5166 11.9465 20.4123C11.3493 19.8354 10.874 19.1487 10.5479 18.3916C10.2218 17.6345 10.0513 16.8218 10.0461 16C10.0654 14.3494 10.7322 12.7694 11.9082 11.5877C13.1059 10.4757 14.6968 9.86185 16.3466 9.87522C17.7596 9.88589 19.1201 10.4014 20.1728 11.3252L22.9787 8.50028C21.1294 6.88329 18.7357 5.99298 16.2573 6.00038C14.8939 5.99244 13.5424 6.24776 12.2797 6.75176C11.017 7.25575 9.868 7.99856 8.89826 8.93776C7.05363 10.8155 6.01364 13.3148 5.99228 15.9213C5.97093 18.5279 6.96985 21.0431 8.78348 22.9497C9.78829 23.9308 10.9826 24.7059 12.2965 25.2295C13.6104 25.7532 15.0175 26.0149 16.4359 25.9996C17.722 26.0089 18.9968 25.7623 20.1829 25.2746C21.3689 24.7869 22.4415 24.0683 23.3358 23.1622C25.0907 21.2711 26.04 18.7932 25.9887 16.2374C26.0025 15.6445 25.9726 15.0514 25.8994 14.4625Z" fill="black"/>
</svg>
