<svg width="24" height="24" viewBox="0 0 24 24" fill="none" xmlns="http://www.w3.org/2000/svg">
<path d="M21.8994 10.4625L21.7846 10.025H12.2956V13.9749H17.9712C17.6545 15.1802 16.9345 16.2465 15.9263 17.0034C14.9182 17.7602 13.6802 18.1638 12.4104 18.1497C10.7534 18.1363 9.16135 17.5166 7.94647 16.4123C7.34926 15.8354 6.87402 15.1487 6.54792 14.3916C6.22184 13.6345 6.05132 12.8218 6.04613 12C6.0654 10.3494 6.73219 8.76938 7.90822 7.58766C9.10595 6.47565 10.6968 5.86185 12.3466 5.87522C13.7596 5.88589 15.1201 6.40144 16.1728 7.32517L18.9787 4.50028C17.1294 2.88329 14.7357 1.99298 12.2573 2.00038C10.8939 1.99244 9.54239 2.24776 8.2797 2.75176C7.01703 3.25575 5.868 3.99856 4.89826 4.93776C3.05363 6.81554 2.01364 9.31484 1.99228 11.9213C1.97093 14.5279 2.96985 17.0431 4.78348 18.9497C5.78829 19.9308 6.98255 20.7059 8.29646 21.2295C9.61037 21.7532 11.0175 22.0149 12.4359 21.9996C13.722 22.0089 14.9968 21.7623 16.1829 21.2746C17.3689 20.7869 18.4415 20.0683 19.3358 19.1622C21.0907 17.2711 22.04 14.7932 21.9887 12.2374C22.0025 11.6445 21.9726 11.0514 21.8994 10.4625Z" fill="black"/>
</svg>
