<svg width="32" height="32" viewBox="0 0 32 32" fill="none" xmlns="http://www.w3.org/2000/svg">
<path d="M16 6C21.5228 6 26 10.4772 26 16C26 21.5228 21.5228 26 16 26C10.4772 26 6 21.5228 6 16C6 10.4772 10.4772 6 16 6ZM20.0303 11.9697C19.7374 11.6768 19.2626 11.6769 18.9697 11.9697L16 14.9395L13.0303 11.9697C12.7374 11.6768 12.2626 11.6769 11.9697 11.9697C11.6768 12.2626 11.6768 12.7374 11.9697 13.0303L14.9395 16L11.9697 18.9697C11.6768 19.2626 11.6768 19.7374 11.9697 20.0303C12.2626 20.3231 12.7374 20.3231 13.0303 20.0303L16 17.0605L18.9697 20.0303C19.2626 20.3231 19.7374 20.3231 20.0303 20.0303C20.3231 19.7374 20.3231 19.2626 20.0303 18.9697L17.0605 16L20.0303 13.0303C20.3231 12.7374 20.3231 12.2626 20.0303 11.9697Z" fill="black"/>
</svg>
