<svg width="24" height="24" viewBox="0 0 24 24" fill="none" xmlns="http://www.w3.org/2000/svg">
<path d="M12 17.2998C13.9436 17.2998 14.6608 17.311 15.2168 17.46C16.8385 17.8946 18.1054 19.1615 18.54 20.7832C18.5989 21.0028 18.6347 21.2476 18.6582 21.583C17.1803 21.9994 15.0998 22 12 22C8.89952 22 6.81874 21.9997 5.34082 21.583C5.3643 21.2475 5.40112 21.0028 5.45996 20.7832C5.8946 19.1615 7.1615 17.8946 8.7832 17.46C9.33921 17.311 10.0564 17.2998 12 17.2998ZM12 2C16.714 2 19.0707 2.00038 20.5352 3.46484C21.9996 4.92931 22 7.28595 22 12C22 16.714 21.9996 19.0707 20.5352 20.5352C20.3434 20.7269 20.1358 20.8923 19.9102 21.0371C19.8818 20.8238 19.845 20.6307 19.7959 20.4473C19.2411 18.3767 17.6233 16.7589 15.5527 16.2041C14.7898 15.9997 13.8597 16 12 16C10.1403 16 9.21022 15.9997 8.44727 16.2041L8.06445 16.3203C6.17853 16.9627 4.72425 18.506 4.2041 20.4473L4.13672 20.7422C4.11861 20.8366 4.10249 20.9345 4.08887 21.0371C3.86353 20.8924 3.65637 20.7267 3.46484 20.5352C2.00038 19.0707 2 16.714 2 12C2 7.28595 2.00038 4.92931 3.46484 3.46484C4.92931 2.00038 7.28595 2 12 2ZM12 6C9.79086 6 8 7.79086 8 10C8 12.2091 9.79086 14 12 14C14.2091 14 16 12.2091 16 10C16 7.79086 14.2091 6 12 6ZM12 7.2998C13.4912 7.2998 14.7002 8.50883 14.7002 10C14.7002 11.4912 13.4912 12.7002 12 12.7002C10.5088 12.7002 9.2998 11.4912 9.2998 10C9.2998 8.50883 10.5088 7.2998 12 7.2998Z" fill="black"/>
</svg>
